<mxfile host="app.diagrams.net" modified="2023-06-05T20:00:38.338Z" agent="Mozilla/5.0 (Windows NT 10.0; Win64; x64) AppleWebKit/537.36 (KHTML, like Gecko) Chrome/114.0.0.0 Safari/537.36" etag="FQH4dxJ8UaetnNwq7e5Z" version="21.3.7" type="github">
  <diagram id="C5RBs43oDa-KdzZeNtuy" name="Page-1">
    <mxGraphModel dx="1032" dy="513" grid="1" gridSize="10" guides="1" tooltips="1" connect="1" arrows="1" fold="1" page="1" pageScale="1" pageWidth="827" pageHeight="1169" math="0" shadow="0">
      <root>
        <mxCell id="WIyWlLk6GJQsqaUBKTNV-0" />
        <mxCell id="WIyWlLk6GJQsqaUBKTNV-1" parent="WIyWlLk6GJQsqaUBKTNV-0" />
        <mxCell id="WIyWlLk6GJQsqaUBKTNV-7" value="Student" style="rounded=1;whiteSpace=wrap;html=1;fontSize=12;glass=0;strokeWidth=1;shadow=0;" parent="WIyWlLk6GJQsqaUBKTNV-1" vertex="1">
          <mxGeometry x="640" y="85" width="120" height="40" as="geometry" />
        </mxCell>
        <mxCell id="tOOunKCmAssYYQt0ti_w-0" value="Admin User" style="rounded=0;whiteSpace=wrap;html=1;" vertex="1" parent="WIyWlLk6GJQsqaUBKTNV-1">
          <mxGeometry x="20" y="235" width="120" height="125" as="geometry" />
        </mxCell>
        <mxCell id="tOOunKCmAssYYQt0ti_w-11" style="edgeStyle=orthogonalEdgeStyle;rounded=0;orthogonalLoop=1;jettySize=auto;html=1;entryX=1;entryY=0.25;entryDx=0;entryDy=0;" edge="1" parent="WIyWlLk6GJQsqaUBKTNV-1" source="tOOunKCmAssYYQt0ti_w-4" target="tOOunKCmAssYYQt0ti_w-0">
          <mxGeometry relative="1" as="geometry" />
        </mxCell>
        <mxCell id="tOOunKCmAssYYQt0ti_w-4" value="" style="rounded=1;whiteSpace=wrap;html=1;fontColor=#000066;labelBackgroundColor=#330000;" vertex="1" parent="WIyWlLk6GJQsqaUBKTNV-1">
          <mxGeometry x="260" y="80" width="240" height="50" as="geometry" />
        </mxCell>
        <mxCell id="tOOunKCmAssYYQt0ti_w-18" style="edgeStyle=orthogonalEdgeStyle;rounded=0;orthogonalLoop=1;jettySize=auto;html=1;entryX=1;entryY=0.25;entryDx=0;entryDy=0;" edge="1" parent="WIyWlLk6GJQsqaUBKTNV-1" source="tOOunKCmAssYYQt0ti_w-5" target="tOOunKCmAssYYQt0ti_w-0">
          <mxGeometry relative="1" as="geometry" />
        </mxCell>
        <mxCell id="tOOunKCmAssYYQt0ti_w-36" value="" style="edgeStyle=orthogonalEdgeStyle;rounded=0;orthogonalLoop=1;jettySize=auto;html=1;" edge="1" parent="WIyWlLk6GJQsqaUBKTNV-1" source="tOOunKCmAssYYQt0ti_w-5" target="tOOunKCmAssYYQt0ti_w-31">
          <mxGeometry relative="1" as="geometry" />
        </mxCell>
        <mxCell id="tOOunKCmAssYYQt0ti_w-5" value="" style="rounded=1;whiteSpace=wrap;html=1;" vertex="1" parent="WIyWlLk6GJQsqaUBKTNV-1">
          <mxGeometry x="260" y="160" width="120" height="50" as="geometry" />
        </mxCell>
        <mxCell id="tOOunKCmAssYYQt0ti_w-14" style="edgeStyle=orthogonalEdgeStyle;rounded=0;orthogonalLoop=1;jettySize=auto;html=1;entryX=1;entryY=0.5;entryDx=0;entryDy=0;" edge="1" parent="WIyWlLk6GJQsqaUBKTNV-1" source="tOOunKCmAssYYQt0ti_w-6" target="tOOunKCmAssYYQt0ti_w-0">
          <mxGeometry relative="1" as="geometry" />
        </mxCell>
        <mxCell id="tOOunKCmAssYYQt0ti_w-37" value="" style="edgeStyle=orthogonalEdgeStyle;rounded=0;orthogonalLoop=1;jettySize=auto;html=1;" edge="1" parent="WIyWlLk6GJQsqaUBKTNV-1" source="tOOunKCmAssYYQt0ti_w-6" target="tOOunKCmAssYYQt0ti_w-32">
          <mxGeometry relative="1" as="geometry" />
        </mxCell>
        <mxCell id="tOOunKCmAssYYQt0ti_w-6" value="" style="rounded=1;whiteSpace=wrap;html=1;" vertex="1" parent="WIyWlLk6GJQsqaUBKTNV-1">
          <mxGeometry x="260" y="240" width="120" height="50" as="geometry" />
        </mxCell>
        <mxCell id="tOOunKCmAssYYQt0ti_w-19" style="edgeStyle=orthogonalEdgeStyle;rounded=0;orthogonalLoop=1;jettySize=auto;html=1;entryX=1;entryY=0.75;entryDx=0;entryDy=0;" edge="1" parent="WIyWlLk6GJQsqaUBKTNV-1" source="tOOunKCmAssYYQt0ti_w-8" target="tOOunKCmAssYYQt0ti_w-0">
          <mxGeometry relative="1" as="geometry" />
        </mxCell>
        <mxCell id="tOOunKCmAssYYQt0ti_w-42" value="" style="edgeStyle=orthogonalEdgeStyle;rounded=0;orthogonalLoop=1;jettySize=auto;html=1;" edge="1" parent="WIyWlLk6GJQsqaUBKTNV-1" source="tOOunKCmAssYYQt0ti_w-8" target="tOOunKCmAssYYQt0ti_w-33">
          <mxGeometry relative="1" as="geometry" />
        </mxCell>
        <mxCell id="tOOunKCmAssYYQt0ti_w-8" value="" style="rounded=1;whiteSpace=wrap;html=1;" vertex="1" parent="WIyWlLk6GJQsqaUBKTNV-1">
          <mxGeometry x="260" y="320" width="120" height="50" as="geometry" />
        </mxCell>
        <mxCell id="tOOunKCmAssYYQt0ti_w-13" style="edgeStyle=orthogonalEdgeStyle;rounded=0;orthogonalLoop=1;jettySize=auto;html=1;entryX=1;entryY=0.75;entryDx=0;entryDy=0;" edge="1" parent="WIyWlLk6GJQsqaUBKTNV-1" source="tOOunKCmAssYYQt0ti_w-9" target="tOOunKCmAssYYQt0ti_w-0">
          <mxGeometry relative="1" as="geometry" />
        </mxCell>
        <mxCell id="tOOunKCmAssYYQt0ti_w-39" value="" style="edgeStyle=orthogonalEdgeStyle;rounded=0;orthogonalLoop=1;jettySize=auto;html=1;" edge="1" parent="WIyWlLk6GJQsqaUBKTNV-1" source="tOOunKCmAssYYQt0ti_w-9" target="tOOunKCmAssYYQt0ti_w-34">
          <mxGeometry relative="1" as="geometry" />
        </mxCell>
        <mxCell id="tOOunKCmAssYYQt0ti_w-9" value="" style="rounded=1;whiteSpace=wrap;html=1;" vertex="1" parent="WIyWlLk6GJQsqaUBKTNV-1">
          <mxGeometry x="260" y="397.5" width="120" height="50" as="geometry" />
        </mxCell>
        <mxCell id="tOOunKCmAssYYQt0ti_w-22" style="edgeStyle=orthogonalEdgeStyle;rounded=0;orthogonalLoop=1;jettySize=auto;html=1;entryX=0.75;entryY=1;entryDx=0;entryDy=0;exitX=0.16;exitY=0.55;exitDx=0;exitDy=0;exitPerimeter=0;" edge="1" parent="WIyWlLk6GJQsqaUBKTNV-1" source="tOOunKCmAssYYQt0ti_w-20" target="tOOunKCmAssYYQt0ti_w-9">
          <mxGeometry relative="1" as="geometry" />
        </mxCell>
        <mxCell id="tOOunKCmAssYYQt0ti_w-20" value="" style="ellipse;shape=cloud;whiteSpace=wrap;html=1;" vertex="1" parent="WIyWlLk6GJQsqaUBKTNV-1">
          <mxGeometry x="570" y="440" width="120" height="80" as="geometry" />
        </mxCell>
        <mxCell id="tOOunKCmAssYYQt0ti_w-21" value="" style="shape=cylinder3;whiteSpace=wrap;html=1;boundedLbl=1;backgroundOutline=1;size=15;" vertex="1" parent="WIyWlLk6GJQsqaUBKTNV-1">
          <mxGeometry x="660" y="420" width="50" height="65" as="geometry" />
        </mxCell>
        <mxCell id="tOOunKCmAssYYQt0ti_w-30" style="edgeStyle=orthogonalEdgeStyle;rounded=0;orthogonalLoop=1;jettySize=auto;html=1;" edge="1" parent="WIyWlLk6GJQsqaUBKTNV-1" target="WIyWlLk6GJQsqaUBKTNV-7">
          <mxGeometry relative="1" as="geometry">
            <mxPoint x="504" y="105" as="sourcePoint" />
          </mxGeometry>
        </mxCell>
        <mxCell id="tOOunKCmAssYYQt0ti_w-43" style="edgeStyle=orthogonalEdgeStyle;rounded=0;orthogonalLoop=1;jettySize=auto;html=1;entryX=0;entryY=1;entryDx=0;entryDy=0;" edge="1" parent="WIyWlLk6GJQsqaUBKTNV-1" source="tOOunKCmAssYYQt0ti_w-31" target="WIyWlLk6GJQsqaUBKTNV-7">
          <mxGeometry relative="1" as="geometry" />
        </mxCell>
        <mxCell id="tOOunKCmAssYYQt0ti_w-31" value="" style="shape=step;perimeter=stepPerimeter;whiteSpace=wrap;html=1;fixedSize=1;" vertex="1" parent="WIyWlLk6GJQsqaUBKTNV-1">
          <mxGeometry x="414" y="152.5" width="90" height="65" as="geometry" />
        </mxCell>
        <mxCell id="tOOunKCmAssYYQt0ti_w-51" style="edgeStyle=orthogonalEdgeStyle;rounded=0;orthogonalLoop=1;jettySize=auto;html=1;" edge="1" parent="WIyWlLk6GJQsqaUBKTNV-1" source="tOOunKCmAssYYQt0ti_w-32" target="tOOunKCmAssYYQt0ti_w-44">
          <mxGeometry relative="1" as="geometry" />
        </mxCell>
        <mxCell id="tOOunKCmAssYYQt0ti_w-32" value="" style="shape=step;perimeter=stepPerimeter;whiteSpace=wrap;html=1;fixedSize=1;" vertex="1" parent="WIyWlLk6GJQsqaUBKTNV-1">
          <mxGeometry x="414" y="232.5" width="90" height="65" as="geometry" />
        </mxCell>
        <mxCell id="tOOunKCmAssYYQt0ti_w-48" style="edgeStyle=orthogonalEdgeStyle;rounded=0;orthogonalLoop=1;jettySize=auto;html=1;entryX=0.25;entryY=1;entryDx=0;entryDy=0;" edge="1" parent="WIyWlLk6GJQsqaUBKTNV-1" source="tOOunKCmAssYYQt0ti_w-33" target="tOOunKCmAssYYQt0ti_w-44">
          <mxGeometry relative="1" as="geometry" />
        </mxCell>
        <mxCell id="tOOunKCmAssYYQt0ti_w-33" value="" style="shape=step;perimeter=stepPerimeter;whiteSpace=wrap;html=1;fixedSize=1;" vertex="1" parent="WIyWlLk6GJQsqaUBKTNV-1">
          <mxGeometry x="414" y="312.5" width="90" height="65" as="geometry" />
        </mxCell>
        <mxCell id="tOOunKCmAssYYQt0ti_w-34" value="" style="shape=step;perimeter=stepPerimeter;whiteSpace=wrap;html=1;fixedSize=1;" vertex="1" parent="WIyWlLk6GJQsqaUBKTNV-1">
          <mxGeometry x="420" y="390" width="90" height="65" as="geometry" />
        </mxCell>
        <mxCell id="tOOunKCmAssYYQt0ti_w-44" value="Tracher" style="rounded=1;whiteSpace=wrap;html=1;fontSize=12;glass=0;strokeWidth=1;shadow=0;" vertex="1" parent="WIyWlLk6GJQsqaUBKTNV-1">
          <mxGeometry x="625" y="245" width="120" height="40" as="geometry" />
        </mxCell>
        <mxCell id="tOOunKCmAssYYQt0ti_w-45" value="" style="shape=actor;whiteSpace=wrap;html=1;" vertex="1" parent="WIyWlLk6GJQsqaUBKTNV-1">
          <mxGeometry x="740" y="60" width="40" height="60" as="geometry" />
        </mxCell>
        <mxCell id="tOOunKCmAssYYQt0ti_w-46" value="" style="shape=actor;whiteSpace=wrap;html=1;" vertex="1" parent="WIyWlLk6GJQsqaUBKTNV-1">
          <mxGeometry x="740" y="210" width="40" height="60" as="geometry" />
        </mxCell>
        <mxCell id="tOOunKCmAssYYQt0ti_w-47" value="" style="shape=actor;whiteSpace=wrap;html=1;" vertex="1" parent="WIyWlLk6GJQsqaUBKTNV-1">
          <mxGeometry x="20" y="200" width="40" height="60" as="geometry" />
        </mxCell>
      </root>
    </mxGraphModel>
  </diagram>
</mxfile>
